/* XPM */
static char *square32[] = {
/* columns rows colors chars-per-pixel */
"32 32 19 1 ",
"  c #1272BF",
". c #1373BF",
"X c #217BC3",
"o c #3084C7",
"O c #3F8DCB",
"+ c #4E96CF",
"@ c #5C9ED3",
"# c #6BA7D7",
"$ c #7AB0DB",
"% c #89B9DF",
"& c #97C1E3",
"* c #A6CAE7",
"= c #B5D3EB",
"- c #C4DCEF",
"; c #D2E4F3",
": c #E1EDF7",
"> c #F0F6FB",
", c gray100",
"< c None",
/* pixels */
"<<......................... ..<<",
"< ............................ <",
" .............................. ",
" ..............o++o.............",
".............. *,,#..%*$........",
"...............;,,O ..*o........",
"........... .O%,,,%$O$%.........",
"...........X=,,,,,,,:%%o........",
"...........=,,,,,,,,&...........",
"..........+,,,:%%%%;@...........",
"..........*,,:X. ...............",
"......... -,,*..................",
"..........-,,:X ................",
"..........&,,,=X................",
"..........o>,,,;o...............",
"...........#,,,,>+..............",
"............@>,,,,# ............",
"............ O:,,,,#............",
"..............X;,,,:............",
"...............X;,,,O...........",
"................@,,,+ ..........",
"................@,,,+...........",
"........ =&.... -,,,X...........",
".........>,>---:,,,*............",
"........+,,,,,,,,,-X............",
"........+=>,,,,,>%..............",
"...........$,,;+X ..............",
"...........%,,% ................",
"...........O++X.................",
"................................",
"< ............................ <",
"<<............................<<"
};
