/* XPM */
static char *square64[] = {
/* columns rows colors chars-per-pixel */
"64 64 20 1 ",
"  c #1272BF",
". c #1273BF",
"X c #1373BF",
"o c #217BC3",
"O c #3084C7",
"+ c #3F8DCB",
"@ c #4E96CF",
"# c #5C9ED3",
"$ c #6BA7D7",
"% c #7AB0DB",
"& c #89B9DF",
"* c #97C1E3",
"= c #A6CAE7",
"- c #B5D3EB",
"; c #C4DCEF",
": c #D2E4F3",
"> c #E1EDF7",
", c #F0F6FB",
"< c gray100",
"1 c None",
/* pixels */
"111111XXXXXXXXXXXXXXXXXXXXXXXXXXXXXXXXXXXXXXXXXXXXXXXXXXXX111111",
"1111XXXXXXXXXXXXXXXXXXXXXXXXXXXXXXXXXXXXXXXXXXXXXXXXXXXXXXXX1111",
"111XXXXXXXXXXXXXXXXXXXXXXXXXXXXXXXXXXXXXXXXXXXXXXXXXXXXXXXXXX111",
"11XXXXXXXXXXXXXXXXXXXXXXXXXXXXXXXXXXXXXXXXXXXXXXXXXXXXXXXXXXXX11",
"1XXXXXXXXXXXXXXXXXXXXXXXXXXXXXXXXXXXXXXXXXXXXXXXXXXXXXXXXXXXXXX1",
"XXXXXXXXXXXXXXXXXXXXXXXXXXXXXXXXXXXXXXXXXXXXXXXXXXXXXXXXXXXXXXXX",
"XXXXXXXXXXXXXXXXXXXXXXXXXXXXXXXXXXXXXXXXXXXXXXXXXXXXXXXXXXXXXXXX",
"XXXXXXXXXXXXXXXXXXXXXXXXXXXXXXX&&&&&&XXXXXX%&&@XXXXXXXXXXXXXXXXX",
"XXXXXXXXXXXXXXXXXXXXXXXXXXXXXXO<<<<<>XXXXX&<:;,XXXXXXXXXXXXXXXXX",
"XXXXXXXXXXXXXXXXXXXXXXXXXXXXXX@<<<<<;XXXXXX+X@<XXXXXXXXXXXXXXXXX",
"XXXXXXXXXXXXXXXXXXXXXXXXXXXXXX%<<<<<*XXXXXXXO,*XXXXXXXXXXXXXXXXX",
"XXXXXXXXXXXXXXXXXXXXXXXXXXXXXX&<<<<<%XXXXXXo:;XXXXXXXXXXXXXXXXXX",
"XXXXXXXXXXXXXXXXXXXXXXXXXXXXXX;<<<<<%@@oXXX=,OXXXXXXXXXXXXXXXXXX",
"XXXXXXXXXXXXXXXXXXXXXXXXXXO*:<<<<<<<<<<<>=*<%XXXXXXXXXXXXXXXXXXX",
"XXXXXXXXXXXXXXXXXXXXXXXXo=<<<<<<<<<<<<<<<<<<<<-XXXXXXXXXXXXXXXXX",
"XXXXXXXXXXXXXXXXXXXXXXX+><<<<<<<<<<<<<<<<;@@@@OXXXXXXXXXXXXXXXXX",
"XXXXXXXXXXXXXXXXXXXXXXo,<<<<<<<<<<<<<<<<<$XXXXXXXXXXXXXXXXXXXXXX",
"XXXXXXXXXXXXXXXXXXXXXX;<<<<<<<<<<<<<<<<<<OXXXXXXXXXXXXXXXXXXXXXX",
"XXXXXXXXXXXXXXXXXXXXX@<<<<<<<<,;;;;;,<<<:XXXXXXXXXXXXXXXXXXXXXXX",
"XXXXXXXXXXXXXXXXXXXXX;<<<<<<,%oXXXXXX+-<%XXXXXXXXXXXXXXXXXXXXXXX",
"XXXXXXXXXXXXXXXXXXXXO<<<<<<<+XXXXXXXXXX+OXXXXXXXXXXXXXXXXXXXXXXX",
"XXXXXXXXXXXXXXXXXXXX#<<<<<<=XXXXXXXXXXXXXXXXXXXXXXXXXXXXXXXXXXXX",
"XXXXXXXXXXXXXXXXXXXX&<<<<<<$XXXXXXXXXXXXXXXXXXXXXXXXXXXXXXXXXXXX",
"XXXXXXXXXXXXXXXXXXXX&<<<<<<%XXXXXXXXXXXXXXXXXXXXXXXXXXXXXXXXXXXX",
"XXXXXXXXXXXXXXXXXXXX&<<<<<<-XXXXXXXXXXXXXXXXXXXXXXXXXXXXXXXXXXXX",
"XXXXXXXXXXXXXXXXXXXX%<<<<<<<+XXXXXXXXXXXXXXXXXXXXXXXXXXXXXXXXXXX",
"XXXXXXXXXXXXXXXXXXXX+<<<<<<<>oXXXXXXXXXXXXXXXXXXXXXXXXXXXXXXXXXX",
"XXXXXXXXXXXXXXXXXXXXX,<<<<<<<>+XXXXXXXXXXXXXXXXXXXXXXXXXXXXXXXXX",
"XXXXXXXXXXXXXXXXXXXXX&<<<<<<<<,#XXXXXXXXXXXXXXXXXXXXXXXXXXXXXXXX",
"XXXXXXXXXXXXXXXXXXXXXo><<<<<<<<<*XXXXXXXXXXXXXXXXXXXXXXXXXXXXXXX",
"XXXXXXXXXXXXXXXXXXXXXX#<<<<<<<<<<:OXXXXXXXXXXXXXXXXXXXXXXXXXXXXX",
"XXXXXXXXXXXXXXXXXXXXXXX$<<<<<<<<<<,#XXXXXXXXXXXXXXXXXXXXXXXXXXXX",
"XXXXXXXXXXXXXXXXXXXXXXXX+,<<<<<<<<<<*XXXXXXXXXXXXXXXXXXXXXXXXXXX",
"XXXXXXXXXXXXXXXXXXXXXXXXXo;<<<<<<<<<<=XXXXXXXXXXXXXXXXXXXXXXXXXX",
"XXXXXXXXXXXXXXXXXXXXXXXXXXX&<<<<<<<<<<$XXXXXXXXXXXXXXXXXXXXXXXXX",
"XXXXXXXXXXXXXXXXXXXXXXXXXXXX#,<<<<<<<<,OXXXXXXXXXXXXXXXXXXXXXXXX",
"XXXXXXXXXXXXXXXXXXXXXXXXXXXXXO;<<<<<<<<=XXXXXXXXXXXXXXXXXXXXXXXX",
"XXXXXXXXXXXXXXXXXXXXXXXXXXXXXXX=<<<<<<<,XXXXXXXXXXXXXXXXXXXXXXXX",
"XXXXXXXXXXXXXXXXXXXXXXXXXXXXXXXX:<<<<<<<+XXXXXXXXXXXXXXXXXXXXXXX",
"XXXXXXXXXXXXXXXXXXXXXXXXXXXXXXXX+<<<<<<<%XXXXXXXXXXXXXXXXXXXXXXX",
"XXXXXXXXXXXXXXXXXXXXXXXXXXXXXXXXX=<<<<<<&XXXXXXXXXXXXXXXXXXXXXXX",
"XXXXXXXXXXXXXXXXXXXXXXXXXXXXXXXXX&<<<<<<&XXXXXXXXXXXXXXXXXXXXXXX",
"XXXXXXXXXXXXXXXXXXXXXXXXXXXXXXXXX*<<<<<<&XXXXXXXXXXXXXXXXXXXXXXX",
"XXXXXXXXXXXXXXXXXXX+XXXXXXXXXXXXX:<<<<<<#XXXXXXXXXXXXXXXXXXXXXXX",
"XXXXXXXXXXXXXXXXXXo<-oXXXXXXXXXX$<<<<<<<OXXXXXXXXXXXXXXXXXXXXXXX",
"XXXXXXXXXXXXXXXXXX$<<>*+XXXXXXX&<<<<<<<:XXXXXXXXXXXXXXXXXXXXXXXX",
"XXXXXXXXXXXXXXXXXX-<<<<<>;;;;;,<<<<<<<<$XXXXXXXXXXXXXXXXXXXXXXXX",
"XXXXXXXXXXXXXXXXXX,<<<<<<<<<<<<<<<<<<<:XXXXXXXXXXXXXXXXXXXXXXXXX",
"XXXXXXXXXXXXXXXXX#<<<<<<<<<<<<<<<<<<<,+XXXXXXXXXXXXXXXXXXXXXXXXX",
"XXXXXXXXXXXXXXXXX=<<<<<<<<<<<<<<<<<<,OXXXXXXXXXXXXXXXXXXXXXXXXXX",
"XXXXXXXXXXXXXXXXX;<<<<<<<<<<<<<<<<<=oXXXXXXXXXXXXXXXXXXXXXXXXXXX",
"XXXXXXXXXXXXXXXXXXO&><<<<<<<<<<<<=@XXXXXXXXXXXXXXXXXXXXXXXXXXXXX",
"XXXXXXXXXXXXXXXXXXXXX+$;<<<<<;&@XXXXXXXXXXXXXXXXXXXXXXXXXXXXXXXX",
"XXXXXXXXXXXXXXXXXXXXXXX-<<<<<#XXXXXXXXXXXXXXXXXXXXXXXXXXXXXXXXXX",
"XXXXXXXXXXXXXXXXXXXXXXX:<<<<<+XXXXXXXXXXXXXXXXXXXXXXXXXXXXXXXXXX",
"XXXXXXXXXXXXXXXXXXXXXXX<<<<<<XXXXXXXXXXXXXXXXXXXXXXXXXXXXXXXXXXX",
"XXXXXXXXXXXXXXXXXXXXXXO;;;;;=XXXXXXXXXXXXXXXXXXXXXXXXXXXXXXXXXXX",
"XXXXXXXXXXXXXXXXXXXXXXXXXXXXXXXXXXXXXXXXXXXXXXXXXXXXXXXXXXXXXXXX",
"XXXXXXXXXXXXXXXXXXXXXXXXXXXXXXXXXXXXXXXXXXXXXXXXXXXXXXXXXXXXXXXX",
"1XXXXXXXXXXXXXXXXXXXXXXXXXXXXXXXXXXXXXXXXXXXXXXXXXXXXXXXXXXXXXX1",
"1XXXXXXXXXXXXXXXXXXXXXXXXXXXXXXXXXXXXXXXXXXXXXXXXXXXXXXXXXXXXXX1",
"11XXXXXXXXXXXXXXXXXXXXXXXXXXXXXXXXXXXXXXXXXXXXXXXXXXXXXXXXXXXX11",
"1111XXXXXXXXXXXXXXXXXXXXXXXXXXXXXXXXXXXXXXXXXXXXXXXXXXXXXXXX1111",
"11111XXXXXXXXXXXXXXXXXXXXXXXXXXXXXXXXXXXXXXXXXXXXXXXXXXXXXX11111"
};
